# xmcd
#
# Track frame offsets: 
#        150
#        15094
#        28331
#        46917
#        61173
#        73955
#        87353
#        101861
#        118912
#        132579
#        146767
#        158982
#        172884
#
# Disc length: 2505 seconds
#
# Revision: 0
# Processed by: cddbd v1.5.2PL0 Copyright (c) Steve Scherf et al.
# Submitted via: ExactAudioCopy v0.95b4
#
DISCID=b909c70d
DTITLE=Lubos Vesely - V houpaci siti
DYEAR=1900
DGENRE=Bluegrass
TTITLE0=V houpaci siti
TTITLE1=Jako driv
TTITLE2=Neverna
TTITLE3=Cim vesti bloud Tim tvrdsi pad
TTITLE4=Kazdy muz
TTITLE5=Diky bracho
TTITLE6=Ted uz vim
TTITLE7=Nejvetsi flam
TTITLE8=V hlave mi zni
TTITLE9=Posledni chlap
TTITLE10=Pohary
TTITLE11=Odletas
TTITLE12=V houpaci siti 2
EXTD=
EXTT0=
EXTT1=
EXTT2=
EXTT3=
EXTT4=
EXTT5=
EXTT6=
EXTT7=
EXTT8=
EXTT9=
EXTT10=
EXTT11=
EXTT12=
PLAYORDER=
